HIERARCHY
ROOT Hips
{
  OFFSET -331.093 83.8371 -317.828
  CHANNELS 6 Xposition Yposition Zposition Zrotation Xrotation Yrotation
  JOINT LeftUpLeg
  {
    OFFSET 8.64259 1.95398 -2.38835
    CHANNELS 3 Zrotation Xrotation Yrotation
    JOINT LeftLeg
    {
      OFFSET 43.7702 0 0
      CHANNELS 3 Zrotation Xrotation Yrotation
      JOINT LeftFoot
      {
        OFFSET 40.6238 0 0
        CHANNELS 3 Zrotation Xrotation Yrotation
        JOINT LeftToeBase
        {
          OFFSET 12.7242 0 0
          CHANNELS 3 Zrotation Xrotation Yrotation
          End Site
          {
            OFFSET 0 0 0
          }
        }
      }
    }
  }
  JOINT RightUpLeg
  {
    OFFSET -8.2249 1.95398 -2.59336
    CHANNELS 3 Zrotation Xrotation Yrotation
    JOINT RightLeg
    {
      OFFSET 43.5653 0 0
      CHANNELS 3 Zrotation Xrotation Yrotation
      JOINT RightFoot
      {
        OFFSET 40.6238 0 0
        CHANNELS 3 Zrotation Xrotation Yrotation
        JOINT RightToeBase
        {
          OFFSET 12.7242 0 0
          CHANNELS 3 Zrotation Xrotation Yrotation
          End Site
          {
            OFFSET 0 0 0
          }
        }
      }
    }
  }
  JOINT Spine
  {
    OFFSET 0.165834 0.87714 6.61349
    CHANNELS 3 Zrotation Xrotation Yrotation
    JOINT Spine1
    {
      OFFSET 7.38963 1.71661e-005 0
      CHANNELS 3 Zrotation Xrotation Yrotation
      JOINT Spine2
      {
        OFFSET 11.9445 1.14441e-005 0
        CHANNELS 3 Zrotation Xrotation Yrotation
        JOINT Spine3
        {
          OFFSET 14.7254 4.19617e-005 0
          CHANNELS 3 Zrotation Xrotation Yrotation
          JOINT Spine4
          {
            OFFSET 10.9679 0 0
            CHANNELS 3 Zrotation Xrotation Yrotation
            JOINT RightShoulder
            {
              OFFSET 2.46616 -1.6653 3.69651
              CHANNELS 3 Zrotation Xrotation Yrotation
              JOINT RightArm
              {
                OFFSET 13.0012 0 0
                CHANNELS 3 Zrotation Xrotation Yrotation
                JOINT RightForeArm
                {
                  OFFSET 28.7848 1.62311e-005 0
                  CHANNELS 3 Zrotation Xrotation Yrotation
                  JOINT RightHand
                  {
                    OFFSET 26.5688 1.62095e-005 0
                    CHANNELS 3 Zrotation Xrotation Yrotation
                    End Site
                    {
                      OFFSET 0 0 0
                    }
                  }
                }
              }
            }
            JOINT LeftShoulder
            {
              OFFSET 2.38034 -1.29275 -3.7523
              CHANNELS 3 Zrotation Xrotation Yrotation
              JOINT LeftArm
              {
                OFFSET 16.3182 6.07031e-005 0
                CHANNELS 3 Zrotation Xrotation Yrotation
                JOINT LeftForeArm
                {
                  OFFSET 27.0901 0 0
                  CHANNELS 3 Zrotation Xrotation Yrotation
                  JOINT LeftHand
                  {
                    OFFSET 24.5451 1.51738e-005 0
                    CHANNELS 3 Zrotation Xrotation Yrotation
                    End Site
                    {
                      OFFSET 0 0 0
                    }
                  }
                }
              }
            }
            JOINT Neck
            {
              OFFSET 5.0226 -0.0266342 0
              CHANNELS 3 Zrotation Xrotation Yrotation
              JOINT Head
              {
                OFFSET 6.69364 2.86102e-005 0
                CHANNELS 3 Zrotation Xrotation Yrotation
                End Site
                {
                  OFFSET 0 0 0
                }
              }
            }
          }
        }
      }
    }
  }
}
MOTION
Frames:	14
Frame Time:	0.0416667
-329.724 91.8064 -336.635 40.5257 -45.7361 51.145 -175.43 36.5969 87.3816 154.779 -73.9682 175.452 -37.5503 -8.88615 -80.2231 -31.1487 -41.2622 -0.460689 172.43 46.4144 83.1452 177.063 64.7435 157.222 82.1479 -2.99151 -2.11129 3.20145 31.6911 -136.778 3.43961 -0.948349 -88.786 28.8525 7.24128 0.0900413 17.2018 7.23819 -0.230453 -5.48454 6.87781 2.27266 14.5281 6.87782 2.27266 110.292 -14.2845 -60.4327 79.158 -37.165 62.1526 4.62901 15.2641 -118.267 -2.62495 1.48495 -45.1851 -84.0525 -31.0994 85.3204 -79.2798 34.5116 53.6814 -2.45259 -18.8907 -95.9737 8.12956 0.594651 3.07525 -3.88611 -5.37572 3.95359 -76.6908 2.41196 -10.5929 
-326.656 93.1807 -334.226 56.4105 -50.099 65.1135 -175.236 21.8196 88.7102 146.531 -83.0301 164.024 -29.6426 -8.27086 -84.5806 -29.7447 -38.8649 -3.67818 173.459 30.6483 82.7374 169.024 61.6033 166.534 73.543 -3.06551 -2.39732 -11.0642 53.8745 -124.817 2.57883 0.0543167 -90.0717 26.4556 5.03423 -1.16257 14.7935 4.9782 -1.38351 -7.81867 5.15029 0.408128 12.194 5.15031 0.408122 104.126 -20.0164 -77.3418 68.8153 -28.1037 56.4595 8.98025 12.0035 -117.832 -1.73903 0.945377 -35.6876 -88.6243 -35.9688 78.0243 -68.5491 24.6363 49.3146 -4.86212 -15.7249 -97.12 7.13848 0.565932 3.48989 -27.7835 -3.2503 4.98605 -52.3937 1.58622 -9.00947 
-324.14 95.0727 -331.965 78.1348 -49.209 80.969 -175.154 10.0137 85.9582 -21.0547 -53.5391 0.852482 28.4357 -23.7639 -66.5633 1.95188 -17.8732 -5.38108 -177.518 35.1365 90.699 -16.6336 74.5901 -22.3839 48.7626 -0.507904 0.916504 113.907 35.6946 21.4278 0.697567 2.52954 -90.0959 21.8631 1.21125 -0.847737 10.1921 1.17279 -0.900242 -12.3434 1.40991 -0.444503 7.66928 1.40991 -0.444512 95.6105 -28.9742 -95.0474 53.3961 -24.2145 44.5987 14.6257 9.21385 -116.123 0.389028 0.361131 -15.8696 -85.2721 -38.4147 84.4548 -58.3326 19.4202 40.2466 -6.62607 -12.253 -97.2183 5.77801 0.403761 2.57362 -31.7511 0.281056 11.2726 -40.1322 3.6601 -5.0827 
-320.312 94.2215 -328.235 88.7423 -42.4019 89.5897 -174.032 -0.00965268 89.9919 -22.1985 23.5256 -4.52081 65.7485 7.43885 15.2165 39.4462 14.302 15.1766 179.321 30.2699 95.8222 -26.859 2.13556 -2.0153 57.7704 0.43047 0.760009 37.9584 -1.56167 0.865556 -0.645972 4.0726 -89.95 18.7358 -1.23577 0.378323 7.06544 -1.21791 0.432333 -15.475 -1.2923 -0.0106074 4.5376 -1.29233 -0.0106126 87.9031 -39.5423 -106.825 38.4948 -18.9979 35.944 20.5697 6.61032 -116.314 1.46785 0.348203 10.1157 -84.9089 -37.5057 84.9052 -49.8792 19.3949 31.6787 -9.49222 -11.0588 -97.0493 5.80459 0.400107 2.3282 -34.1675 1.75592 6.20779 -28.8519 2.93807 -0.590569 
-313.942 92.56 -322.874 96.8381 -36.5666 97.8816 -170.004 -11.7415 93.4563 -16.4452 58.6053 -8.25593 51.1219 9.65981 40.5829 39.4393 19.8186 26.1937 -178.04 22.8038 98.8583 -4.46367 7.203 -4.64651 61.3973 -0.453686 -0.145459 48.6315 -4.7902 -14.7096 -0.924917 6.09684 -89.9874 14.6846 -1.8245 0.288868 3.01491 -1.81001 0.368915 -19.5304 -1.82696 -0.273008 0.482218 -1.82693 -0.273004 89.3667 -43.0879 -103.196 30.1952 -14.9872 22.8038 25.2128 3.99757 -117.476 -2.1483 -0.521595 20.3149 -86.2594 -38.4584 82.7519 -35.9789 20.0389 15.9999 -1.07592 -10.303 -94.2934 -5.13803 -0.298088 4.21215 -24.026 1.28855 -0.537835 -26.9506 1.00257 1.31116 
-305.812 90.6557 -315.955 103.46 -32.2764 103.362 -163.545 -21.4433 102.754 -19.1178 67.261 -7.42695 51.2282 8.4929 37.9454 43.6711 24.8362 25.8817 179.487 17.5147 100.852 -6.64465 11.6045 -0.912246 62.0871 -1.29868 -0.660546 45.1147 -3.25165 -11.1421 -0.733617 7.90036 -90.3621 11.0713 -1.62825 -0.565093 -0.59871 -1.65151 -0.492881 -23.1394 -1.38311 -1.02838 -3.12673 -1.3831 -1.02838 93.7836 -41.8197 -96.106 27.2792 -10.4396 11.2085 25.8441 2.24519 -118.671 -3.70868 -0.991302 22.137 -89.3763 -42.2989 78.4005 -23.1929 17.7893 1.91893 1.51697 -9.04309 -92.012 -8.87738 -0.673769 5.92327 -11.447 -0.75946 -2.35744 -29.3162 -0.852122 0.617307 
-296.77 89.7537 -308.813 104.836 -32.2727 107.384 -160.151 -21.1902 110.085 -33.8886 53.7301 0.0320807 58.2194 3.14391 13.317 39.1053 21.2611 29.3721 179.251 18.7765 104.432 -21.0108 6.68525 1.23322 57.7686 0.296291 0.232573 32.8759 -1.35218 -7.61248 -0.445073 8.41582 -91.0158 10.0288 -1.34933 -1.89618 -1.64274 -1.43145 -1.83499 -24.169 -0.717219 -2.2139 -4.15634 -0.717209 -2.2139 94.4762 -40.6228 -95.1519 26.1086 -8.58076 6.55414 25.0673 2.70752 -119.456 -3.20415 -0.980025 25.0949 -91.6036 -45.0376 75.5469 -21.3388 16.3933 -0.674579 -4.33127 -8.98063 -91.1609 -3.00247 -0.154326 2.8669 -6.70108 -1.35877 -0.536848 -30.462 -1.29043 -0.153526 
-288.111 90.1021 -302.237 104.189 -32.7382 107.03 -165.027 -12.3846 108.155 -52.7229 37.8891 3.6181 49.8012 -8.261 -3.62387 40.936 22.4219 27.6756 -178.228 21.1743 107.464 -35.9198 10.5637 -0.974169 64.9422 -2.57653 -1.52979 27.6188 -0.316967 -3.24036 -0.30929 8.26268 -91.1228 10.3325 -1.12986 -2.13139 -1.3396 -1.22255 -2.07963 -23.8616 -0.437283 -2.37229 -3.84899 -0.437251 -2.37228 94.2429 -39.9363 -95.6892 26.1524 -9.52758 5.82138 24.5098 4.28684 -119.33 -1.85936 -0.620393 26.3241 -92.4475 -45.7571 74.436 -22.9327 17.6915 1.45658 -13.2375 -9.73277 -91.6382 6.24387 0.318641 1.01898 -6.74952 -1.35322 0.266466 -30.9444 -1.35408 -0.156663 
-280.29 92.1534 -296.373 100.043 -35.2021 101.997 -170.559 4.4271 102.557 -65.9665 25.4016 2.99786 51.6069 -6.12067 1.76415 30.5186 5.74402 16.4018 -179.74 17.4606 105.191 -36.6047 5.25287 -1.55653 70.7173 -4.11565 -2.33425 20.5615 -0.0196009 -3.52696 -0.0509828 7.81387 -90.8769 11.2392 -0.509412 -1.69548 -0.432717 -0.583547 -1.67143 -22.959 0.0235976 -1.77018 -2.94635 0.0236313 -1.77018 93.5346 -39.362 -97.0488 25.4452 -9.03893 4.63981 26.653 3.75079 -116.576 -0.922211 -0.257526 22.0962 -92.5801 -46.6272 74.4721 -22.3521 16.576 0.476205 -16.1677 -9.80535 -90.7975 7.1355 0.313878 0.490541 -8.11126 -1.0012 1.10946 -29.5549 -0.977768 -0.473202 
-272.793 94.6115 -290.855 93.1572 -38.8033 95.0634 -172.828 20.8313 96.3424 -62.1686 15.3924 1.33095 58.0362 -2.58738 0.61505 29.5722 3.28288 10.4135 179.819 13.2942 102.253 -30.3065 1.57735 -2.55111 72.4649 -5.51168 -2.89683 22.4047 -0.0543243 -2.64621 0.257749 7.20358 -90.5857 12.4672 0.233357 -1.19742 0.7957 0.180431 -1.20653 -21.736 0.58243 -1.07195 -1.72336 0.58242 -1.07196 93.7767 -37.8929 -96.9427 25.7986 -10.1501 1.94927 25.4942 3.95425 -109.737 -0.402167 -0.0107158 14.8446 -92.2516 -46.8385 75.0328 -23.4639 14.625 1.73971 -14.825 -8.9372 -92.1742 8.20649 0.339037 0.217202 -8.23196 -0.612096 2.91188 -29.8438 -0.417114 -1.62908 
-264.882 95.6863 -285.136 90.0738 -41.5776 90.6101 -175.506 26.8485 92.849 -41.8483 11.6596 -0.125363 59.7856 -0.561404 1.37578 37.1655 14.7946 21.7148 178.113 6.27707 98.8988 -25.5594 -3.68431 -3.47898 74.8015 -6.54037 -3.27216 25.263 -0.221716 -3.19679 0.430357 6.95453 -90.2979 12.9659 0.711529 -0.681065 1.295 0.680859 -0.711723 -21.241 0.883324 -0.435722 -1.22833 0.883316 -0.435734 93.6779 -37.2035 -97.2746 25.9765 -10.7946 -0.10973 25.3555 2.00065 -101.463 -1.82276 -0.00309709 5.54285 -91.3234 -46.5373 76.3773 -24.369 11.5081 3.29645 -12.0167 -7.78389 -93.6658 4.78424 0.14024 -0.644432 -8.44565 0.331812 4.14975 -29.1531 0.46959 -1.69782 
-256.634 95.5356 -279.211 91.312 -44.4589 89.3732 -178.141 23.9692 91.5601 -12.2288 8.48715 -0.432126 60.6413 2.27959 3.54169 37.7916 15.8447 22.2931 173.605 -4.51883 94.2381 -21.0675 -10.1059 -2.65024 76.7989 -8.25529 -3.82854 29.5464 -0.38617 -3.05265 0.583979 7.10957 -90.0836 12.6565 1.1201 -0.299353 0.986004 1.10585 -0.348373 -21.553 1.15826 0.0511649 -1.54037 1.15827 0.0511539 93.8067 -36.0715 -97.3009 25.907 -11.9233 -2.61957 23.6737 0.481712 -95.2575 -5.4736 -0.0711786 -0.298598 -90.3852 -46.5468 77.8254 -25.0303 9.93593 4.37331 -12.4508 -7.02387 -96.1324 5.57937 0.190135 -0.343298 -7.49673 1.1354 5.49962 -29.4374 1.16365 -1.74988 
-248.43 94.1709 -273.176 96.4835 -47.389 90.7325 -179.797 24.0155 89.874 -5.3962 3.34094 0.49665 63.5612 2.69319 2.90487 41.3644 20.3374 23.0094 169.447 -12.8252 87.672 -22.5583 -16.1811 -4.1634 78.4718 -10.2246 -4.499 37.1064 -0.978508 -4.31771 0.789363 7.50933 -89.7833 11.8543 1.67168 0.253424 0.18445 1.68121 0.179571 -22.3579 1.5182 0.744217 -2.34529 1.51822 0.744224 93.5375 -35.6606 -97.8927 25.5445 -14.7576 -4.30048 35.3374 1.83635 -97.6407 -13.9441 -0.906006 1.62929 -89.4982 -46.6271 79.2137 -24.7043 9.65039 4.41341 -11.7509 -6.678 -98.4763 5.48877 0.30754 1.41837 -6.93408 1.85698 6.26659 -30.1436 1.98702 -2.41607 
-239.084 92.3393 -266.434 100.211 -48.6114 90.8147 -179.013 21.2566 85.7734 -9.1383 4.54731 -1.47963 58.2738 1.45193 4.97556 42.7799 22.2146 23.3621 167.163 -15.563 81.8281 -33.2564 -19.223 -7.69264 74.2142 -7.17616 -3.63819 49.2818 -1.82617 -5.03873 0.929858 7.76803 -89.3944 11.3285 2.13236 0.990736 -0.340999 2.17389 0.895882 -22.8832 1.736 1.58587 -2.87056 1.73604 1.58587 93.3039 -36.1223 -98.2094 25.6083 -14.3956 -3.41452 34.8933 2.51297 -97.973 -7.96479 -0.631102 3.69318 -88.8989 -46.5161 80.1168 -24.5356 11.2471 3.17254 -14.2259 -6.71509 -99.4411 9.31298 0.573566 2.12996 -6.61528 1.581 5.52796 -31.456 1.83051 -2.6017 
